<?xml version="1.0" standalone="no"?>
<!DOCTYPE svg PUBLIC "-//W3C//DTD SVG 20010904//EN"
 "http://www.w3.org/TR/2001/REC-SVG-20010904/DTD/svg10.dtd">
<svg version="1.0" xmlns="http://www.w3.org/2000/svg"
 width="298.000000pt" height="269.000000pt" viewBox="0 0 298.000000 269.000000"
 preserveAspectRatio="xMidYMid meet">
<metadata>
Created by potrace 1.16, written by Peter Selinger 2001-2019
</metadata>
<g transform="translate(0.000000,269.000000) scale(0.100000,-0.100000)"
fill="#000000" stroke="none">
<path d="M973 2678 c4 -12 407 -739 573 -1035 l69 -123 678 0 678 0 -12 22
c-12 22 -463 799 -546 941 -26 43 -51 76 -57 74 -6 -2 -83 -131 -173 -288 -89
-156 -176 -296 -193 -311 -52 -48 -142 -31 -175 32 -32 62 -25 80 155 393 94
163 170 299 170 302 0 3 -264 5 -586 5 -465 0 -585 -3 -581 -12z"/>
<path d="M683 2598 c-30 -31 -607 -1024 -659 -1133 -27 -56 -33 -166 -12 -226
11 -34 621 -1093 642 -1116 9 -10 51 57 181 283 107 187 180 303 198 316 75
53 187 -7 187 -100 0 -19 -58 -129 -169 -323 l-169 -294 660 -3 c647 -2 660
-2 707 19 27 11 64 37 84 57 20 21 170 271 341 569 276 479 306 537 306 577
l0 44 -612 4 c-337 2 -614 3 -615 3 -2 -1 51 -98 117 -216 66 -118 122 -228
126 -245 12 -62 -50 -134 -115 -134 -79 0 -60 -29 -621 979 -288 518 -528 949
-534 957 -10 13 -16 10 -43 -18z"/>
</g>
</svg>
